<svg xmlns="http://www.w3.org/2000/svg" height="16" width="16" viewBox="0 0 512 512"><!--!Font Awesome Free 6.5.1 by @fontawesome - https://fontawesome.com License - https://fontawesome.com/license/free Copyright 2023 Fonticons, Inc.--><path opacity="1" fill="#1E3050" d="M467.1 44.8c-62.6-62.5-161.7-64.8-252.3 25.7-78.6 78.5-61 60.9-85.8 85.7-60.5 60.4-70.4 150.8-63.6 211.2l178.4-178.3c6.3-6.3 16.4-6.3 22.7 0s6.3 16.4 0 22.6L7 471c-9.4 9.4-9.4 24.6 0 33.9 9.4 9.4 24.6 9.4 34 0l66.1-66C159.4 454.7 279 457.1 354 384h-98.2l147.6-49.1c50-49.9 36.4-36.2 46.3-46.9h-97.8l131.5-43.8c45.4-74.5 34.3-148.8-16.3-199.4z"/></svg>